<svg width="91" height="91" viewBox="0 0 91 91" fill="none" xmlns="http://www.w3.org/2000/svg">
<g clip-path="url(#clip0)">
<path d="M72.0498 71.8533C71.4277 71.4589 70.6043 71.6429 70.2099 72.265C66.8809 77.5116 61.1892 80.6442 54.9845 80.6442H20.6824C10.7481 80.6442 2.66602 72.5614 2.66602 62.6271V30.6807C2.66602 29.9448 2.06894 29.3477 1.33301 29.3477C0.597076 29.3477 0 29.9448 0 30.6807V62.6271C0 74.0319 9.27829 83.3102 20.6824 83.3102H54.9845C62.1071 83.3102 68.6409 79.7146 72.4608 73.6931C72.8551 73.0717 72.6711 72.2476 72.0498 71.8533ZM60.3304 36.43L50.1669 46.5942C49.6462 47.1149 49.6462 47.9591 50.1669 48.4791C50.4266 48.7395 50.7682 48.87 51.109 48.87C51.4499 48.87 51.7915 48.7395 52.0519 48.4791L62.2154 38.3156C62.7361 37.7949 62.7361 36.9507 62.2154 36.43C61.6954 35.91 60.8511 35.91 60.3304 36.43ZM89.0713 14.2208L84.4252 9.57475C81.8536 7.00246 77.6685 7.00246 75.0969 9.57475L70.2738 14.3979C66.3553 10.0878 60.8636 7.64258 54.9845 7.64258H20.6824C15.9246 7.64258 11.2792 9.29842 7.60162 12.3046C3.97611 15.2678 1.43993 19.4078 0.461693 23.9608C0.306869 24.6808 0.765091 25.3896 1.48505 25.5445C1.57948 25.5639 1.6739 25.5743 1.76624 25.5743C2.38136 25.5743 2.93401 25.1466 3.068 24.5211C3.92057 20.5568 6.12906 16.9514 9.2887 14.3687C12.4914 11.7506 16.5376 10.3086 20.6824 10.3086H54.9845C60.1471 10.3086 64.9675 12.4733 68.3861 16.2856L54.2104 30.4613H17.0382C16.3016 30.4613 15.7045 31.0577 15.7045 31.7943C15.7045 32.5303 16.3016 33.1273 17.0382 33.1273H51.5444L45.1529 39.5181H17.0382C16.3016 39.5181 15.7045 40.1152 15.7045 40.8518C15.7045 41.5878 16.3016 42.1848 17.0382 42.1848H42.4868L34.218 50.4537C31.8221 52.8496 29.8615 55.6128 28.3917 58.6662L24.5975 66.5483C23.5477 68.7304 23.9754 71.2465 25.6875 72.9586C26.7761 74.0472 28.1903 74.6165 29.6372 74.6165C30.4648 74.6165 31.3035 74.4297 32.097 74.0479L35.9211 72.2074C35.9218 72.2067 35.9232 72.2067 35.9239 72.206L39.9798 70.2544C43.0325 68.7846 45.7958 66.824 48.1924 64.428L73.0016 39.6188V62.6271C73.0016 64.0871 72.8267 65.5389 72.4816 66.9427C72.306 67.6578 72.7433 68.3791 73.4585 68.5548C73.5654 68.5812 73.6723 68.5937 73.7771 68.5937C74.377 68.5937 74.9213 68.1868 75.0706 67.5786C75.467 65.9672 75.6676 64.301 75.6676 62.6271V36.9528L79.373 33.2474C79.3737 33.2467 79.3737 33.2467 79.3737 33.246C79.3744 33.246 79.3744 33.246 79.3744 33.2454L89.0713 23.5491C91.6429 20.9768 91.6429 16.7924 89.0713 14.2208ZM30.9411 71.6457C29.5497 72.3157 28.2889 71.7894 27.5724 71.0736C26.8566 70.3571 26.3304 69.0963 27.0004 67.705L28.1251 65.3674C29.0637 66.1179 29.9746 66.9316 30.8446 67.8015C31.7145 68.6714 32.5282 69.5823 33.2787 70.521L30.9411 71.6457ZM38.8232 67.8522L35.7385 69.3365C34.8241 68.1507 33.8167 67.0031 32.7295 65.9165C31.6423 64.8293 30.4946 63.8212 29.3095 62.9076L30.7939 59.8229C31.8186 57.6949 33.1044 55.7225 34.6297 53.9354L44.7106 64.0163C42.9235 65.5409 40.9511 66.8274 38.8232 67.8522ZM46.6574 62.1925L36.4536 51.9887L66.3421 22.0995L76.5459 32.3032L46.6574 62.1925ZM78.4315 30.4183L68.2278 20.2145L71.5186 16.9236L81.7231 27.1274L78.4315 30.4183ZM87.1863 21.6635L83.6081 25.2418L73.4043 15.038L76.9819 11.4597C77.7484 10.6932 78.7544 10.3107 79.7611 10.3107C80.7671 10.3107 81.7738 10.6932 82.5396 11.4597L87.1857 16.1058C88.7179 17.6381 88.7179 20.1312 87.1863 21.6635ZM17.0382 24.0698H58.6294C59.3654 24.0698 59.9624 23.4734 59.9624 22.7368C59.9624 22.0002 59.3654 21.4038 58.6294 21.4038H17.0382C16.3016 21.4038 15.7045 22.0002 15.7045 22.7368C15.7045 23.4734 16.3016 24.0698 17.0382 24.0698Z" fill="#A39161"/>
</g>
<defs>
<clipPath id="clip0">
<rect width="91" height="91" fill="white"/>
</clipPath>
</defs>
</svg>
