<svg width="92" height="92" viewBox="0 0 92 92" fill="none" xmlns="http://www.w3.org/2000/svg">
<g clip-path="url(#clip0)">
<path d="M27.2468 30.7926L21.7843 36.2551C21.1851 36.8539 20.2147 36.8537 19.6157 36.2551L17.0282 33.6676C16.4295 33.0686 16.4295 32.098 17.0282 31.4991C17.6272 30.9005 18.5978 30.9005 19.1968 31.4991L20.7 33.0025L25.0782 28.6241C25.6772 28.0255 26.6478 28.0255 27.2468 28.6241C27.8455 29.223 27.8455 30.1936 27.2468 30.7926ZM27.2468 48.3657C26.6478 47.7672 25.6772 47.7672 25.0782 48.3657L20.7 52.7442L19.1968 51.2407C18.5978 50.6422 17.6272 50.6422 17.0282 51.2407C16.4295 51.8397 16.4295 52.8103 17.0282 53.4093L19.6157 55.9967C20.2149 56.5955 21.1853 56.5953 21.7843 55.9967L27.2468 50.5343C27.8455 49.9353 27.8455 48.9647 27.2468 48.3657ZM64.1125 90.4667C64.1125 91.3134 63.4259 92 62.5792 92H12.3625C8.1351 92 4.69583 88.5607 4.69583 84.3333V15.3333C4.69583 11.1059 8.1351 7.66667 12.3625 7.66667H30.7625V6.70833C30.7625 3.00936 33.7719 0 37.4708 0C41.1698 0 44.1792 3.00936 44.1792 6.70833V7.66667H62.5792C66.8066 7.66667 70.2458 11.1059 70.2458 15.3333V31.7528C70.2458 32.5996 69.5593 33.2862 68.7125 33.2862C67.8657 33.2862 67.1792 32.5996 67.1792 31.7528V15.3333C67.1792 12.797 65.1155 10.7333 62.5792 10.7333C60.2134 10.7333 14.3806 10.7333 12.3625 10.7333C9.82617 10.7333 7.7625 12.797 7.7625 15.3333V84.3333C7.7625 86.8696 9.82617 88.9333 12.3625 88.9333H62.5792C63.4259 88.9333 64.1125 89.6199 64.1125 90.4667ZM33.8292 7.66667H41.1125V6.70833C41.1125 4.70024 39.4789 3.06667 37.4708 3.06667C35.4627 3.06667 33.8292 4.70024 33.8292 6.70833V7.66667ZM55.1042 14.95C55.1042 14.1032 54.4176 13.4167 53.5708 13.4167C52.724 13.4167 52.0375 14.1032 52.0375 14.95C52.0375 16.6409 50.6617 18.0167 48.9708 18.0167H25.9708C24.2799 18.0167 22.9042 16.6409 22.9042 14.95C22.9042 14.1032 22.2176 13.4167 21.3708 13.4167C20.524 13.4167 19.8375 14.1032 19.8375 14.95C19.8375 18.332 22.5889 21.0833 25.9708 21.0833H48.9708C52.3528 21.0833 55.1042 18.332 55.1042 14.95ZM27.6958 70.3417V73.7917C27.6958 76.328 25.6322 78.3917 23.0958 78.3917H19.6458C17.1095 78.3917 15.0458 76.328 15.0458 73.7917V70.3417C15.0458 67.8053 17.1095 65.7417 19.6458 65.7417H23.0958C25.6322 65.7417 27.6958 67.8053 27.6958 70.3417ZM24.6292 70.3417C24.6292 69.4962 23.9413 68.8083 23.0958 68.8083H19.6458C18.8004 68.8083 18.1125 69.4962 18.1125 70.3417V73.7917C18.1125 74.6371 18.8004 75.325 19.6458 75.325H23.0958C23.9413 75.325 24.6292 74.6371 24.6292 73.7917V70.3417ZM53.3792 71.3H48.2042C47.3574 71.3 46.6708 71.9865 46.6708 72.8333C46.6708 73.6801 47.3574 74.3667 48.2042 74.3667H53.3792C54.2259 74.3667 54.9125 73.6801 54.9125 72.8333C54.9125 71.9865 54.2259 71.3 53.3792 71.3ZM87.3042 41.975V78.3917C87.3042 81.7736 84.5528 84.525 81.1708 84.525H44.7542C41.3722 84.525 38.6208 81.7736 38.6208 78.3917V41.975C38.6208 38.593 41.3722 35.8417 44.7542 35.8417H81.1708C84.5528 35.8417 87.3042 38.593 87.3042 41.975ZM84.2375 41.975C84.2375 40.2841 82.8617 38.9083 81.1708 38.9083H57.5958V48.1944C57.5958 49.0398 58.2837 49.7277 59.1292 49.7277H66.9875C67.8329 49.7277 68.5208 49.0398 68.5208 48.1944V43.3167C68.5208 42.4699 69.2074 41.7833 70.0542 41.7833C70.9009 41.7833 71.5875 42.4699 71.5875 43.3167V48.1944C71.5875 50.7307 69.5238 52.7944 66.9875 52.7944H59.1292C56.5928 52.7944 54.5292 50.7307 54.5292 48.1944V38.9083H44.7542C43.0633 38.9083 41.6875 40.2841 41.6875 41.975V78.3917C41.6875 80.0825 43.0633 81.4583 44.7542 81.4583H81.1708C82.8617 81.4583 84.2375 80.0825 84.2375 78.3917V41.975Z" fill="#A39161"/>
</g>
<defs>
<clipPath id="clip0">
<rect width="92" height="92" fill="white"/>
</clipPath>
</defs>
</svg>
