<svg width="91" height="91" viewBox="0 0 91 91" fill="none" xmlns="http://www.w3.org/2000/svg">
<path d="M54.9792 37.9166C51.8321 37.9166 49.2917 35.3762 49.2917 32.2291V13.2708C49.2917 10.1237 51.8321 7.58331 54.9792 7.58331C58.1263 7.58331 60.6667 10.1237 60.6667 13.2708V32.2291C60.6667 35.3762 58.1263 37.9166 54.9792 37.9166Z" stroke="#A39161" stroke-width="3" stroke-linecap="round" stroke-linejoin="round"/>
<path d="M77.7292 37.9167H72.0417V32.2292C72.0417 29.0821 74.5821 26.5417 77.7292 26.5417C80.8763 26.5417 83.4167 29.0821 83.4167 32.2292C83.4167 35.3763 80.8763 37.9167 77.7292 37.9167Z" stroke="#A39161" stroke-width="3" stroke-linecap="round" stroke-linejoin="round"/>
<path d="M36.0208 53.0833C39.1679 53.0833 41.7083 55.6237 41.7083 58.7708V77.7292C41.7083 80.8762 39.1679 83.4167 36.0208 83.4167C32.8737 83.4167 30.3333 80.8762 30.3333 77.7292V58.7708C30.3333 55.6237 32.8737 53.0833 36.0208 53.0833Z" stroke="#A39161" stroke-width="3" stroke-linecap="round" stroke-linejoin="round"/>
<path d="M13.2708 53.0833H18.9583V58.7708C18.9583 61.9179 16.4179 64.4583 13.2708 64.4583C10.1237 64.4583 7.58333 61.9179 7.58333 58.7708C7.58333 55.6237 10.1237 53.0833 13.2708 53.0833Z" stroke="#A39161" stroke-width="3" stroke-linecap="round" stroke-linejoin="round"/>
<path d="M53.0833 54.9792C53.0833 51.8321 55.6237 49.2917 58.7708 49.2917H77.7292C80.8763 49.2917 83.4167 51.8321 83.4167 54.9792C83.4167 58.1263 80.8763 60.6667 77.7292 60.6667H58.7708C55.6237 60.6667 53.0833 58.1263 53.0833 54.9792Z" stroke="#A39161" stroke-width="3" stroke-linecap="round" stroke-linejoin="round"/>
<path d="M58.7708 72.0417H53.0833V77.7292C53.0833 80.8763 55.6237 83.4167 58.7708 83.4167C61.9179 83.4167 64.4583 80.8763 64.4583 77.7292C64.4583 74.5821 61.9179 72.0417 58.7708 72.0417Z" stroke="#A39161" stroke-width="3" stroke-linecap="round" stroke-linejoin="round"/>
<path d="M37.9167 36.0208C37.9167 32.8737 35.3762 30.3333 32.2292 30.3333H13.2708C10.1237 30.3333 7.58333 32.8737 7.58333 36.0208C7.58333 39.1679 10.1237 41.7083 13.2708 41.7083H32.2292C35.3762 41.7083 37.9167 39.1679 37.9167 36.0208Z" stroke="#A39161" stroke-width="3" stroke-linecap="round" stroke-linejoin="round"/>
<path d="M32.2292 18.9583H37.9167V13.2708C37.9167 10.1237 35.3763 7.58331 32.2292 7.58331C29.0821 7.58331 26.5417 10.1237 26.5417 13.2708C26.5417 16.4179 29.0821 18.9583 32.2292 18.9583Z" stroke="#A39161" stroke-width="3" stroke-linecap="round" stroke-linejoin="round"/>
</svg>
